<svg width="101" height="140" viewBox="0 0 101 140" fill="none" xmlns="http://www.w3.org/2000/svg">
<path fill-rule="evenodd" clip-rule="evenodd" d="M97.0001 10.1882H74.0653V14.0363H96.2719V108.571L82.6848 121.956L69.3015 135.542H4.45208V14.0346H26.7017V10.1865H3.72383C1.6763 10.1865 0 11.8619 0 13.9092V135.69C0 137.737 1.67642 139.414 3.72383 139.414H96.999C99.0466 139.414 100.723 137.737 100.723 135.69V13.9092C100.723 11.8617 99.0464 10.1865 96.999 10.1865L97.0001 10.1882Z" fill="black"/>
<path fill-rule="evenodd" clip-rule="evenodd" d="M70.5737 12.5396C70.5737 9.68516 68.2381 7.35072 65.3848 7.35072H62.171C59.5313 7.35072 57.2713 5.92675 56.1299 3.54487C55.1277 1.44882 52.9852 0 50.5052 0C48.0251 0 45.8838 1.4488 44.8794 3.54487C43.7391 5.92681 41.4792 7.35072 38.8372 7.35072H35.3354C32.482 7.35072 30.1465 9.68626 30.1465 12.5396V16.7987H70.5745L70.5737 12.5396ZM50.5041 5.99695C49.2495 5.99695 48.2322 4.9829 48.2322 3.7283C48.2322 2.4726 49.2495 1.45747 50.5041 1.45747C51.7587 1.45747 52.7727 2.47152 52.7727 3.7283C52.7749 4.98185 51.7587 5.99695 50.5041 5.99695Z" fill="black"/>
<path fill-rule="evenodd" clip-rule="evenodd" d="M93.2164 108.57H69.2998V132.546L93.2164 108.57Z" fill="#E5E5E5"/>
<path fill-rule="evenodd" clip-rule="evenodd" d="M42.6038 93.0387L45.2867 90.2273L84.6073 49.0095L79.6449 44.2876L43.0086 82.6885L32.0796 69.3246L26.7656 73.672L40.1511 90.0393L42.6038 93.0387Z" fill="#D1002C"/>
<path d="M43.3873 96.3252C43.4252 95.8582 43.0852 95.4212 42.6288 95.3502C42.1668 95.2722 41.766 95.584 41.7345 96.0459L41.0677 104.25C41.0488 104.483 41.1292 104.709 41.2631 104.881C41.4023 105.06 41.5953 105.186 41.8262 105.225C42.2881 105.303 42.689 104.991 42.7205 104.53L43.3873 96.3252Z" fill="#E5E5E5"/>
<path d="M40.193 94.7289C39.8685 94.3263 39.3556 94.2014 39.0473 94.4499L33.5577 98.8751C33.2494 99.1236 33.2626 99.6513 33.5871 100.054C33.9116 100.456 34.4245 100.581 34.7328 100.333L40.2223 95.9076C40.537 95.6671 40.5235 95.1388 40.193 94.7289Z" fill="#E5E5E5"/>
<path d="M51.1229 100.852L46.8407 95.5401C46.6002 95.2418 46.0907 95.2535 45.7027 95.5664C45.3146 95.8792 45.195 96.3745 45.4355 96.6729L49.7177 101.985C49.9582 102.283 50.4676 102.272 50.8557 101.959C51.2432 101.647 51.3678 101.156 51.1229 100.852Z" fill="#E5E5E5"/>
</svg>
