<svg width="26" height="25" viewBox="0 0 26 25" fill="none" xmlns="http://www.w3.org/2000/svg">
<path d="M21.7737 0H3.5114C1.65089 0 0.142578 1.50824 0.142578 3.3688V21.6311C0.142578 23.4916 1.65083 24.9999 3.5114 24.9999H12.5183L12.5336 16.0663H10.2127C9.91104 16.0663 9.66623 15.8224 9.66507 15.5208L9.65394 12.6411C9.65277 12.3378 9.89832 12.0914 10.2016 12.0914H12.5183V9.30886C12.5183 6.0798 14.4905 4.32156 17.371 4.32156H19.7347C20.0371 4.32156 20.2824 4.56673 20.2824 4.86921V7.29736C20.2824 7.59972 20.0373 7.84484 19.735 7.84502L18.2845 7.84569C16.7179 7.84569 16.4146 8.59009 16.4146 9.68253V12.0914H19.8568C20.1848 12.0914 20.4392 12.3778 20.4006 12.7035L20.0593 15.5832C20.0266 15.8588 19.7929 16.0664 19.5155 16.0664H16.4299L16.4146 25H21.7738C23.6343 25 25.1426 23.4918 25.1426 21.6313V3.3688C25.1425 1.50824 23.6343 0 21.7737 0Z" fill="#475993"/>
</svg>
