<svg width="31" height="36" viewBox="0 0 31 36" fill="none" xmlns="http://www.w3.org/2000/svg">
<path d="M15.8135 0.866211L0.813477 9.50943V26.7957L15.8135 35.4389L30.8135 26.7957V9.50943L15.8135 0.866211ZM29.1406 25.8476L15.8135 33.4869L2.48634 25.8476V10.4573L15.8135 2.81798L29.1406 10.5132V25.8476Z" fill="#C4C4C4"/>
<path d="M16.5942 24.2308C16.5386 24.4537 16.4269 24.6769 16.2037 24.7886C15.9808 24.9002 15.7575 24.9558 15.5347 24.9002C15.0885 24.7886 14.754 24.3424 14.8656 23.8406L16.7058 15.9224C16.8174 15.4763 16.6502 15.0301 16.2596 14.8073C15.8691 14.5844 15.4234 14.5844 15.0329 14.8629L14.754 15.1974C13.9733 16.0897 12.9694 16.8143 11.9102 17.3165C11.5197 17.5393 11.2968 18.0415 11.5197 18.4316C11.7426 18.8221 12.2447 19.045 12.6348 18.8221C13.3599 18.4876 14.0289 18.0971 14.6423 17.5954L13.2482 23.506C12.9137 24.8444 13.806 26.2385 15.144 26.5731C15.3113 26.6287 15.5345 26.6287 15.7018 26.6287C16.1479 26.6287 16.6497 26.517 17.0402 26.2382C17.598 25.9036 18.0437 25.2903 18.1553 24.6768C18.267 24.2307 17.9881 23.7845 17.5419 23.6733C17.1518 23.506 16.6496 23.7845 16.594 24.2307L16.5942 24.2308Z" fill="#D1002C"/>
<path d="M17.2632 11.1821C17.2632 11.983 16.6144 12.6319 15.8135 12.6319C15.0126 12.6319 14.3638 11.9831 14.3638 11.1821C14.3638 10.3812 15.0126 9.73242 15.8135 9.73242C16.6144 9.73242 17.2632 10.3812 17.2632 11.1821Z" fill="#D1002C"/>
</svg>
