<svg width="32" height="25" viewBox="0 0 32 25" fill="none" xmlns="http://www.w3.org/2000/svg">
<path d="M30.6545 2.90828C29.9721 3.20439 29.2637 3.43799 28.5368 3.60711C29.3377 2.86233 29.94 1.93077 30.2797 0.89097C30.3767 0.594127 30.0472 0.337439 29.7733 0.496376C28.762 1.08332 27.6728 1.52364 26.5356 1.80524C26.4697 1.82158 26.4016 1.82986 26.3333 1.82986C26.1262 1.82986 25.9248 1.75461 25.7664 1.61802C24.5566 0.574635 23.0006 0 21.3851 0C20.686 0 19.9802 0.106618 19.2872 0.316921C17.1402 0.96857 15.4835 2.70163 14.9637 4.83985C14.7687 5.64186 14.7159 6.44461 14.8067 7.22573C14.8171 7.3155 14.7737 7.37815 14.747 7.40753C14.7 7.45905 14.6335 7.48858 14.5644 7.48858C14.5566 7.48858 14.5487 7.48821 14.5408 7.48748C9.84093 7.0602 5.60276 4.84454 2.607 1.24871C2.45424 1.0653 2.16129 1.08779 2.03953 1.29216C1.45288 2.277 1.14286 3.40341 1.14286 4.5496C1.14286 6.30619 1.86407 7.96158 3.11682 9.16837C2.59 9.04614 2.08011 8.85365 1.60647 8.59623C1.37732 8.47166 1.09538 8.63176 1.09216 8.88823C1.05936 11.4978 2.62071 13.8197 4.95965 14.8653C4.91255 14.8664 4.86545 14.8669 4.81827 14.8669C4.44752 14.8669 4.07212 14.8319 3.70264 14.7628C3.44459 14.7146 3.2278 14.9541 3.30792 15.199C4.0671 17.5182 6.10786 19.2278 8.54999 19.6159C6.52317 20.9473 4.16288 21.6496 1.70629 21.6496L0.940446 21.6491C0.704485 21.6491 0.504917 21.7996 0.444785 22.0233C0.385551 22.2436 0.494658 22.4759 0.695873 22.5904C3.46406 24.1668 6.62157 25 9.82842 25C12.6355 25 15.2612 24.4549 17.6328 23.3799C19.8069 22.3944 21.7282 20.9857 23.3431 19.1928C24.8476 17.5227 26.024 15.5947 26.8397 13.4625C27.6172 11.4301 28.0282 9.26136 28.0282 7.19085V7.09222C28.0281 6.75977 28.1817 6.44695 28.4498 6.23401C29.4671 5.42577 30.353 4.47434 31.0828 3.40619C31.2755 3.12415 30.9716 2.77066 30.6545 2.90828Z" fill="#76A9EA"/>
</svg>
