<svg width="36" height="12" viewBox="0 0 36 12" fill="none" xmlns="http://www.w3.org/2000/svg">
<path fill-rule="evenodd" clip-rule="evenodd" d="M8.86981 11.2344H5.79944L3.49703 2.45062C3.38774 2.04657 3.15571 1.68936 2.81439 1.521C1.96259 1.09791 1.02396 0.761202 0 0.591381V0.253204H4.94614C5.62878 0.253204 6.14075 0.761202 6.22608 1.35118L7.4207 7.68724L10.4896 0.253204H13.4746L8.86981 11.2344ZM15.1812 11.2344H12.2815L14.6692 0.253204H17.569L15.1812 11.2344ZM21.3205 3.2954C21.4058 2.70395 21.9178 2.36578 22.5151 2.36578C23.4538 2.28087 24.4762 2.45069 25.3295 2.87231L25.8415 0.507998C24.9882 0.16982 24.0496 0 23.1978 0C20.3834 0 18.3355 1.52106 18.3355 3.63211C18.3355 5.23808 19.7861 6.08133 20.81 6.58933C21.9178 7.09586 22.3445 7.43404 22.2591 7.94057C22.2591 8.70037 21.4058 9.03855 20.554 9.03855C19.5301 9.03855 18.5061 8.78528 17.569 8.3622L17.057 10.728C18.081 11.1496 19.1888 11.3194 20.2127 11.3194C23.3684 11.4029 25.3295 9.88326 25.3295 7.6024C25.3295 4.73009 21.3205 4.56173 21.3205 3.2954ZM35.4777 11.2344L33.1753 0.253204H30.7022C30.1903 0.253204 29.6783 0.591381 29.5076 1.09791L25.2441 11.2344H28.2292L28.825 9.62993H32.4927L32.834 11.2344H35.4777ZM31.1289 3.21051L31.9807 7.34915H29.593L31.1289 3.21051Z" fill="#172B85"/>
</svg>
