<svg width="40" height="41" viewBox="0 0 40 41" fill="none" xmlns="http://www.w3.org/2000/svg">
<path d="M0.687744 39.4959L3.41936 29.5336C1.73836 26.6204 0.850112 23.3155 0.850112 19.9247C0.850112 9.32238 9.4843 0.697266 20.0765 0.697266C25.2245 0.697266 30.0478 2.70311 33.6772 6.33272C37.3066 9.96234 39.3028 14.7955 39.3028 19.9342C39.3028 30.5365 30.6686 39.1616 20.0765 39.1616H20.0669C16.8482 39.1616 13.6868 38.3497 10.8788 36.8215L0.687744 39.4959Z" fill="url(#paint0_linear_1624_1445)"/>
<path d="M0 40.1932L2.82712 29.8775C1.07927 26.8591 0.162368 23.4301 0.162368 19.9151C0.162368 8.93076 9.10219 0 20.0859 0C25.4155 0 30.4202 2.0727 34.1738 5.83604C37.9369 9.59937 40.0095 14.6044 40 19.9247C40 30.909 31.0601 39.8398 20.0764 39.8398H20.0668C16.7335 39.8398 13.4575 38.9992 10.5444 37.4137L0 40.1932ZM11.0506 33.8223L11.6523 34.1852C14.1929 35.6944 17.106 36.4872 20.0764 36.4967H20.0859C29.2072 36.4967 36.638 29.0751 36.638 19.9438C36.638 15.5214 34.9188 11.3664 31.7956 8.23349C28.6724 5.09101 24.5176 3.37172 20.0955 3.37172C10.9647 3.37172 3.5339 10.7933 3.5339 19.9247C3.5339 23.048 4.40305 26.095 6.06494 28.7313L6.45654 29.3617L4.7851 35.4652L11.0506 33.8223Z" fill="#F7F7F7"/>
<path fill-rule="evenodd" clip-rule="evenodd" d="M15.1098 11.5958C14.7373 10.7648 14.3457 10.7457 13.9923 10.7361C13.7058 10.7266 13.3715 10.7266 13.0372 10.7266C12.7029 10.7266 12.1681 10.8507 11.7096 11.3474C11.2512 11.8441 9.97131 13.0476 9.97131 15.5024C9.97131 17.9476 11.7574 20.3164 12.0057 20.6507C12.254 20.985 15.4536 26.1715 20.5062 28.1678C24.7086 29.8298 25.5682 29.4955 26.4756 29.4095C27.3829 29.3236 29.4173 28.206 29.8376 27.0407C30.2483 25.8754 30.2483 24.8821 30.1241 24.6719C29.9999 24.4618 29.6656 24.3376 29.169 24.0893C28.6723 23.8409 26.2273 22.6374 25.7688 22.4655C25.3103 22.3031 24.9761 22.2172 24.6513 22.7138C24.317 23.2105 23.3619 24.3281 23.0754 24.6624C22.7889 24.9967 22.4928 25.0349 21.9961 24.7865C21.4995 24.5382 19.8949 24.0129 17.9942 22.3127C16.5138 20.9945 15.5109 19.3612 15.2244 18.8645C14.9379 18.3679 15.1958 18.1004 15.4441 17.8521C15.6638 17.6324 15.9407 17.2694 16.1891 16.9829C16.4374 16.6963 16.5234 16.4862 16.6857 16.1519C16.8481 15.8176 16.7717 15.531 16.6475 15.2827C16.5138 15.0439 15.5491 12.5796 15.1098 11.5958Z" fill="white"/>
<defs>
<linearGradient id="paint0_linear_1624_1445" x1="20.0033" y1="39.4995" x2="20.0033" y2="0.70141" gradientUnits="userSpaceOnUse">
<stop stop-color="#20B038"/>
<stop offset="1" stop-color="#60D66A"/>
</linearGradient>
</defs>
</svg>
