<svg width="21" height="29" viewBox="0 0 21 29" fill="none" xmlns="http://www.w3.org/2000/svg">
<path d="M16.8764 27.0227H15.5324L13.9414 8.23874H14.5705C14.6578 8.23874 14.7417 8.20387 14.8034 8.14208C14.8652 8.0803 14.9 7.99644 14.9 7.90905V6.92042C14.9 6.83303 14.8652 6.74917 14.8034 6.68738C14.7417 6.62559 14.6578 6.59095 14.5705 6.59095H12.9237V3.95452H13.5825H13.5823C13.7224 3.95518 13.8477 3.86713 13.8942 3.73495C13.941 3.60299 13.8991 3.45579 13.7899 3.36796L10.6177 0.830626V0.329689C10.6177 0.147628 10.4704 0 10.2884 0C10.1064 0 9.95908 0.147634 9.95908 0.329689V0.830626L6.79027 3.36819V3.36797C6.68109 3.45536 6.63896 3.60188 6.68484 3.73385C6.73094 3.86559 6.8549 3.95409 6.99453 3.95453H7.6534V6.59095H6.00634C5.82436 6.59095 5.6768 6.73859 5.6768 6.92042V7.90905C5.6768 7.99644 5.71165 8.0803 5.77341 8.14209C5.83517 8.20388 5.91899 8.23874 6.00634 8.23874H6.63545L5.04441 27.0227H3.70041C3.51866 27.0227 3.37109 27.1702 3.37109 27.3522V28.6703C3.37109 28.7577 3.40572 28.8416 3.46748 28.9033C3.52924 28.9651 3.61306 29 3.70041 29H16.8766C16.964 29 17.0478 28.9651 17.1096 28.9033C17.1713 28.8416 17.206 28.7577 17.206 28.6703V27.3522C17.206 27.2648 17.1713 27.181 17.1096 27.1192C17.0478 27.0574 16.964 27.0227 16.8766 27.0227L16.8764 27.0227ZM10.2883 1.4104L12.6434 3.29541H7.9332L10.2883 1.4104ZM12.2647 3.95435V6.59077H8.31193V3.95435H12.2647ZM6.33555 7.5794V7.24994H14.2411V7.5794H6.33555ZM13.7537 13.8406H6.83642L7.31066 8.23823L13.2793 8.23845L13.7537 13.8406ZM6.76696 14.4997H13.8096L14.2839 20.102H6.29254L6.76696 14.4997ZM6.23669 20.7609H14.3398L14.8701 27.022L12.2646 27.0222V23.7266C12.2646 23.0202 11.8879 22.3675 11.2764 22.0144C10.665 21.6611 9.91149 21.6611 9.30006 22.0144C8.68862 22.3675 8.31187 23.0202 8.31187 23.7266V27.0222H5.70638L6.23669 20.7609ZM11.6058 23.7268V27.0223H8.97076V23.7268C8.97076 23.2558 9.22178 22.8207 9.6294 22.5852C10.037 22.3497 10.5395 22.3497 10.9471 22.5852C11.3548 22.8207 11.6058 23.2558 11.6058 23.7268ZM16.5467 28.3404H4.03004V27.6813H16.5467V28.3404Z" fill="black"/>
<path d="M10.288 6.26144C10.0259 6.26144 9.77449 6.15728 9.5892 5.97192C9.40392 5.78632 9.2998 5.53497 9.2998 5.27281C9.2998 5.01043 9.40392 4.75907 9.5892 4.57371C9.77449 4.38834 10.0259 4.28418 10.288 4.28418C10.55 4.28418 10.8015 4.38834 10.9868 4.57371C11.1721 4.75907 11.2762 5.01043 11.2762 5.27281C11.2762 5.53497 11.1721 5.78632 10.9868 5.97192C10.8015 6.15728 10.55 6.26144 10.288 6.26144ZM10.288 4.94334V4.94312C10.1548 4.94312 10.0345 5.02345 9.9836 5.14659C9.93264 5.26973 9.96088 5.41162 10.0551 5.50585C10.1492 5.60008 10.2909 5.62811 10.4139 5.57713C10.537 5.52615 10.6173 5.40611 10.6173 5.27282C10.6173 5.18543 10.5827 5.10157 10.5209 5.03978C10.4592 4.97799 10.3753 4.94313 10.288 4.94313L10.288 4.94334Z" fill="black"/>
<path d="M11.2764 12.523H9.30002C9.11804 12.523 8.9707 12.3753 8.9707 12.1935V11.2049C8.9707 10.734 9.22172 10.2988 9.62935 10.0633C10.037 9.82785 10.5394 9.82785 10.9471 10.0633C11.3547 10.2988 11.6057 10.7339 11.6057 11.2049V12.1935C11.6057 12.2809 11.5711 12.3647 11.5093 12.4265C11.4476 12.4883 11.3638 12.523 11.2764 12.523ZM9.62935 11.8638H10.9469L10.9471 11.2049C10.9471 10.8408 10.6519 10.5457 10.2882 10.5457C9.92448 10.5457 9.62934 10.8408 9.62934 11.2049L9.62935 11.8638Z" fill="black"/>
<path d="M11.2764 18.7837H9.30002C9.11804 18.7837 8.9707 18.6363 8.9707 18.4542V17.4656C8.9707 16.9947 9.22172 16.5595 9.62935 16.3241C10.037 16.0886 10.5394 16.0886 10.9471 16.3241C11.3547 16.5595 11.6057 16.9947 11.6057 17.4656V18.4542C11.6057 18.5416 11.5711 18.6255 11.5093 18.6873C11.4476 18.7491 11.3638 18.7837 11.2764 18.7837ZM9.62935 18.1246H10.9469L10.9471 17.4656C10.9471 17.1017 10.6519 16.8065 10.2882 16.8065C9.92448 16.8065 9.62934 17.1017 9.62934 17.4656L9.62935 18.1246Z" fill="black"/>
<path d="M20.1702 5.60252H15.8881C15.7062 5.60252 15.5586 5.45488 15.5586 5.27305C15.5586 5.09099 15.7062 4.94336 15.8881 4.94336H20.1702C20.3522 4.94336 20.4995 5.09099 20.4995 5.27305C20.4995 5.45489 20.3522 5.60252 20.1702 5.60252Z" fill="black"/>
<path d="M15.8886 4.28435C15.7287 4.28413 15.5922 4.16915 15.5646 4.01159C15.5368 3.85403 15.6264 3.69956 15.7766 3.64505L19.7986 2.17865V2.17843C19.9696 2.11576 20.159 2.20359 20.2217 2.37462C20.2846 2.54564 20.1968 2.7352 20.0258 2.79809L16.0005 4.26449C15.9648 4.27751 15.9268 4.28413 15.8887 4.28435L15.8886 4.28435Z" fill="black"/>
<path d="M19.9133 8.38722C19.8741 8.387 19.8352 8.38038 19.7982 8.36736L15.7761 6.90097C15.6103 6.83543 15.5264 6.65006 15.5871 6.48212C15.6478 6.31441 15.8308 6.22547 16 6.28131L20.0253 7.7477V7.74792C20.1963 7.80971 20.2847 7.99861 20.223 8.16963C20.1758 8.30005 20.052 8.387 19.9133 8.38722L19.9133 8.38722Z" fill="black"/>
<path d="M4.68855 5.60252H0.40647C0.22449 5.60252 0.0771484 5.45488 0.0771484 5.27305C0.0771484 5.09099 0.224496 4.94336 0.40647 4.94336H4.68855C4.87053 4.94336 5.01809 5.09099 5.01809 5.27305C5.01809 5.45489 4.87052 5.60252 4.68855 5.60252Z" fill="black"/>
<path d="M4.68832 4.28435C4.65016 4.28413 4.61222 4.27751 4.57649 4.26449L0.551169 2.79809C0.380223 2.7352 0.292433 2.54563 0.355293 2.37461C0.417939 2.20359 0.607411 2.11576 0.778362 2.17843L4.8004 3.64482V3.64504C4.95062 3.69955 5.04017 3.85402 5.01238 4.01159C4.98481 4.16915 4.84827 4.28412 4.68835 4.28434L4.68832 4.28435Z" fill="black"/>
<path d="M0.663358 8.38662C0.524616 8.3864 0.400872 8.29945 0.353664 8.16903C0.2919 7.99801 0.380355 7.80911 0.551302 7.74732L4.57662 6.28092V6.2807C4.65933 6.24804 4.75176 6.25047 4.83293 6.2871C4.91389 6.32373 4.97675 6.39148 5.00697 6.47534C5.03741 6.55898 5.03234 6.65144 4.99351 6.73155C4.95469 6.81143 4.88499 6.87234 4.80051 6.90036L0.778463 8.36676C0.741406 8.37978 0.702581 8.3864 0.663319 8.38662L0.663358 8.38662Z" fill="black"/>
</svg>
