<svg width="34" height="35" viewBox="0 0 34 35" fill="none" xmlns="http://www.w3.org/2000/svg">
<path d="M1.74533 26.4968C1.90735 26.3348 1.90735 26.0643 1.69124 25.9023C0.664263 24.9294 0.77242 23.3079 1.25875 22.065C2.44776 18.9301 3.15046 21.2003 3.25842 14.9849C3.31251 11.85 4.93401 6.49962 8.01453 6.06712C6.66321 7.68863 5.20401 12.3907 4.82559 14.5524C4.01493 18.9303 3.74473 27.7945 5.69032 31.7939C6.23074 32.8748 7.52795 34.2802 8.33861 34.3883C8.98721 34.4965 12.4464 34.5504 12.9868 34.1722C14.446 33.1993 14.1758 33.3616 14.3919 33.1452C14.5539 33.4695 14.7703 33.7938 14.9864 34.01C15.4727 34.4425 19.0942 35.0369 19.7425 34.9829C20.5532 35.1449 22.2288 34.1181 22.7692 33.5777C26.066 30.2268 27.1471 16.012 25.8499 12.0125C27.093 13.4176 28.6604 14.8771 29.3631 15.4716C33.0391 18.6601 31.0933 20.1734 30.5529 23.2002C29.9043 26.8214 30.9313 29.3617 33.4175 30.3348C33.6336 30.3889 33.85 30.3348 33.9579 30.1187C34.0661 29.9025 33.9579 29.6862 33.7418 29.5782C30.9313 28.4974 31.0394 25.2003 31.3638 23.3627C31.9042 20.3901 34.0661 18.4443 29.9046 14.8774C28.6073 13.7425 25.5266 10.8237 25.0403 9.58064C24.7701 8.87794 24.1215 6.98623 23.2567 6.33788C22.6622 5.90539 22.0677 5.68927 21.4732 5.68927C20.6625 5.20295 19.6356 5.09476 18.7167 5.36497C16.4466 5.95948 16.1764 7.95938 15.7442 8.82411C15.5281 9.20251 15.0956 9.68885 14.6093 9.63477C14.1768 7.68898 13.2041 6.17563 11.2583 5.36497C10.8258 5.14885 10.3395 5.09476 9.79906 5.14885C10.0152 4.82455 10.3936 4.60843 10.772 4.50025C11.961 4.23004 14.3391 5.09476 15.4201 3.47328C16.2308 2.17604 15.204 0.608676 18.609 0.824991C18.8252 0.824991 19.0415 0.662965 19.0415 0.446597C19.0415 0.230479 18.8795 0.014111 18.6631 0.014111C14.6095 -0.202007 15.3663 2.12194 14.7718 3.04075C14.015 4.17568 12.0153 3.41915 10.664 3.68936C9.90723 3.85138 9.09658 4.44613 8.93454 5.20271C4.66474 4.66229 2.44876 10.9317 2.39468 14.931C2.2865 20.9302 1.69198 18.4981 0.448893 21.7414C-0.0915277 23.2547 -0.253804 25.2546 1.0975 26.4975C1.31284 26.6598 1.58305 26.6598 1.74533 26.4977L1.74533 26.4968ZM16.0139 16.336C17.3111 17.3089 18.5001 18.1196 19.7973 18.8764C18.5 19.0925 17.311 19.2547 15.7436 19.525C15.6357 18.6059 15.5275 18.7682 16.0138 16.336L16.0139 16.336ZM24.8778 21.2544C23.8508 20.4976 22.824 19.8492 21.8512 19.2547C22.9861 18.9304 24.1213 18.444 25.0939 17.6873C25.0401 18.7681 24.986 19.9571 24.8778 21.2544ZM24.7699 22.1732C23.2024 26.8213 16.5005 28.4967 15.7976 20.3356C17.6353 20.0113 19.1486 19.9031 20.7701 19.5249C22.0674 20.3356 23.3643 21.1462 24.7697 22.1732H24.7699ZM14.3925 19.0383C13.2035 18.3356 12.1765 17.7952 11.1498 17.3089C12.2306 16.7684 13.2576 16.0658 14.2305 15.1469C14.2843 16.8764 14.2843 17.3089 14.3925 19.0383H14.3925ZM14.4464 20.0112C14.9868 26.8216 4.77189 27.6321 5.04228 19.903C5.04228 19.903 9.58228 18.0113 10.1768 17.7411C11.5281 18.3356 12.8794 18.9842 14.4465 20.0113L14.4464 20.0112ZM5.0961 19.0383C5.15019 17.7952 5.31222 16.6062 5.47449 15.4712C6.71759 16.1739 7.90666 16.7143 9.25791 17.3089C7.85252 17.9034 6.71758 18.2815 5.09607 19.0383H5.0961ZM8.44708 33.5773C8.06869 33.5232 6.93373 32.4964 6.39334 31.4153C5.20432 29.0373 5.0961 26.0106 5.04202 23.3081C7.52827 27.5238 12.5546 27.1454 14.6627 22.9297C14.8247 25.9023 14.987 31.7392 12.5548 33.4154C12.1764 33.6317 9.25774 33.6858 8.44708 33.5777V33.5773ZM15.5817 33.4152C15.4196 33.2532 15.1492 32.8748 14.9872 32.3883C16.1762 30.4425 16.1762 27.1996 16.1221 24.8756C18.3381 27.47 22.0675 27.5239 24.4452 24.4431C24.0128 27.0375 23.4723 30.1722 21.959 32.3338C21.3104 33.3067 20.0132 34.1173 19.6351 34.1173C18.8242 34.1176 15.9057 33.631 15.5814 33.4149L15.5817 33.4152ZM24.6077 10.8235C24.9861 12.4451 25.0402 14.9313 25.094 16.6066C23.9591 17.6875 22.4996 18.2822 20.9325 18.6604C19.2569 17.6334 17.7435 16.7146 16.1764 15.4714C16.6627 13.1475 17.3654 10.7692 18.0681 9.47223C19.041 7.68868 19.9598 6.71579 20.9865 6.49967C21.5811 6.33764 22.2296 6.49967 22.8783 6.986C23.4728 7.41848 24.2834 9.52632 24.6077 10.8236L24.6077 10.8235ZM16.5005 9.14795C16.933 8.39118 17.4193 5.74289 20.0137 6.01309C19.0949 6.49942 18.1761 7.52644 17.3113 9.09381C16.5546 10.4989 15.8521 13.0393 15.3117 15.4714C15.1497 13.9581 14.9333 11.4719 14.7713 10.391C15.5816 10.337 16.1761 9.74244 16.5005 9.14795H16.5005ZM10.9876 6.06723C13.4198 7.09421 13.9602 11.6883 14.1225 14.0124C12.8794 15.3096 11.5821 16.1743 10.177 16.877C8.5555 16.1743 7.15037 15.5797 5.58294 14.6609C5.85315 13.0935 7.63669 6.87789 8.988 6.22947C9.79866 5.79699 10.5011 5.85108 10.9877 6.06719L10.9876 6.06723Z" fill="black"/>
</svg>
