<svg width="47" height="35" viewBox="0 0 47 35" fill="none" xmlns="http://www.w3.org/2000/svg">
<path d="M23.7401 12.9041C20.1838 12.8863 17.2981 9.99409 17.2996 6.44701C17.3012 2.88952 20.2105 -0.000792791 23.7807 1.6312e-07C27.3471 0.0015489 30.2544 2.89458 30.2529 6.45286C30.2529 6.75022 30.2309 7.03634 30.1929 7.31666V7.31705C29.772 10.473 27.0505 12.9061 23.7745 12.9049H23.7401L23.7401 12.9041ZM29.0906 7.17029C29.1223 6.92946 29.1401 6.69443 29.1405 6.45206C29.1417 3.49711 26.7466 1.11161 23.778 1.11003C20.8044 1.11003 18.4089 3.49236 18.4077 6.4474C18.4065 9.39392 20.7823 11.7781 23.7408 11.7944H23.7721C26.4995 11.7955 28.7417 9.78028 29.0905 7.17027L29.0906 7.17029Z" fill="black"/>
<path d="M40.2159 12.9109H40.147H40.1404C36.9345 12.8714 34.2762 10.5081 33.8139 7.42684C33.8139 7.42646 33.8135 7.42684 33.8135 7.42684C33.7659 7.11283 33.7384 6.78954 33.7384 6.4554C33.7399 2.89751 36.6508 0.00650141 40.2214 0.00838468V0.00683594C43.7881 0.00761026 46.6958 2.90062 46.6943 6.4589C46.6932 10.0217 43.7831 12.9125 40.216 12.911L40.2159 12.9109ZM40.221 1.11473V1.11628C37.2462 1.11512 34.8496 3.49861 34.8484 6.45365C34.8484 6.72778 34.8705 6.99377 34.9111 7.25861C35.2929 9.80627 37.4852 11.7663 40.1544 11.7984H40.2167C43.1856 11.7995 45.5831 9.41723 45.5842 6.45604C45.5857 3.5011 43.1903 1.11599 40.221 1.11481L40.221 1.11473Z" fill="black"/>
<path d="M37.6077 15.0569H37.5923L26.3918 15.0518C26.0855 15.0561 25.8335 14.811 25.8288 14.5044C25.8246 14.1981 26.0696 13.9461 26.3763 13.9414H26.3918L37.5923 13.9464C37.8985 13.9422 38.1506 14.1873 38.1552 14.4939C38.1595 14.801 37.9144 15.053 37.6077 15.0569V15.0569Z" fill="black"/>
<path d="M0.929682 15.2472C0.976919 15.2472 1.02338 15.2534 1.06906 15.265L15.9637 19.1434L15.9653 14.4918C15.9653 14.1855 16.2138 13.9365 16.5205 13.9365L21.2596 13.9388C21.5658 13.9346 21.8179 14.1797 21.8225 14.4863C21.8268 14.7926 21.5817 15.0446 21.2751 15.0493H21.2596L17.0757 15.0477L17.0733 19.7752C17.1051 19.9723 17.0284 20.1717 16.8724 20.2964C16.865 20.3018 16.8581 20.3076 16.8503 20.313C16.8464 20.3165 16.8418 20.3192 16.8379 20.3223C16.6788 20.435 16.4717 20.4555 16.2928 20.3765L1.48436 16.5206L1.477 33.2103L16.2844 29.1444C16.4664 29.0616 16.6797 29.0832 16.8412 29.2017C16.854 29.2106 16.8664 29.2207 16.878 29.2308C17.0278 29.3566 17.0998 29.5517 17.0689 29.7449L17.0673 33.8773L45.8823 33.8897L45.89 15.061L42.7243 15.0599C42.4181 15.0641 42.166 14.819 42.1614 14.5124C42.1571 14.2061 42.4022 13.9541 42.7088 13.9494H42.7243L46.4448 13.951V13.9506C46.751 13.9506 47 14.1992 47 14.5058L46.9915 34.4446C46.9915 34.7509 46.7429 34.9999 46.4363 34.9999L16.5112 34.9875C16.2049 34.9875 15.9559 34.7389 15.9559 34.4322L15.9575 30.3858L1.0678 34.4749C0.771993 34.5558 0.466506 34.3823 0.385585 34.0861C0.372421 34.0385 0.365452 33.9886 0.365452 33.939L0.373196 15.8031C0.374744 15.4965 0.623311 15.2483 0.92958 15.2483L0.929682 15.2472Z" fill="black"/>
<path d="M40.2175 9.00623H40.1931H40.1877C38.9244 8.99307 37.8743 8.05879 37.6915 6.84425C37.6733 6.72305 37.6609 6.59374 37.6609 6.45667C37.6613 5.05503 38.8155 3.91287 40.2198 3.91327V3.91211C41.6206 3.9125 42.7772 5.05426 42.7764 6.45749C42.7756 7.86528 41.6183 9.00674 40.2175 9.00634L40.2175 9.00623ZM40.2191 5.02134V5.02251C39.4087 5.02212 38.7715 5.6571 38.7711 6.45627C38.7711 6.52557 38.7776 6.60185 38.7893 6.67735C38.8907 7.35841 39.4742 7.88809 40.199 7.89503H40.218C41.0218 7.89542 41.666 7.26005 41.666 6.45622C41.6668 5.659 41.0229 5.02206 40.2191 5.02127V5.02134Z" fill="black"/>
<path d="M21.0308 6.44874C21.0312 4.9449 22.2651 3.71017 23.7791 3.70898C25.2894 3.71053 26.5223 4.94679 26.5215 6.45102C26.5215 6.57221 26.5153 6.68681 26.5037 6.80181V6.82194C26.3178 8.15807 25.1636 9.19149 23.7771 9.19109H23.7628C22.2581 9.18412 21.0305 7.9521 21.0309 6.44866L21.0308 6.44874ZM25.3982 6.67757C25.4055 6.6009 25.4094 6.53159 25.4094 6.45067C25.4098 5.54853 24.6857 4.81986 23.7759 4.81947C22.8602 4.81947 22.137 5.54776 22.137 6.44948C22.1366 7.3524 22.8552 8.07563 23.7616 8.08069H23.774C24.6084 8.08146 25.2844 7.46893 25.3983 6.67755L25.3982 6.67757Z" fill="black"/>
</svg>
