<svg width="42" height="35" viewBox="0 0 42 35" fill="none" xmlns="http://www.w3.org/2000/svg">
<path d="M41.9029 19.9335L38.3617 13.7991L38.385 11.4813C38.3854 11.4536 38.384 11.426 38.3807 11.3986C37.6937 4.90055 32.241 0 25.6977 0C24.2013 0 22.7652 0.261015 21.4305 0.736375C20.0954 0.261015 18.6596 0 17.1632 0C10.6205 0 5.16637 4.90029 4.47854 11.3986C4.47554 11.4263 4.47421 11.454 4.47488 11.4816L4.49921 13.7994L0.957334 19.9331C0.829326 20.1548 0.829326 20.4281 0.957334 20.6498C1.08534 20.8715 1.32202 21.0082 1.57803 21.0082H4.03219L3.07879 22.6586C2.95078 22.8803 2.95078 23.1536 3.07879 23.3753C3.2068 23.597 3.44348 23.7337 3.69949 23.7337H3.94417L3.37314 24.7231C3.20047 25.0218 3.26514 25.4008 3.52715 25.6258L4.50154 26.4615V29.3263C4.50154 29.722 4.82223 30.043 5.21825 30.043H10.6995V34.2833C10.6995 34.679 11.0202 35 11.4162 35H21.4179C21.4222 35 21.4265 34.9987 21.4302 34.9987C21.4339 34.9987 21.4382 35 21.4425 35H31.4442C31.8399 35 32.1609 34.679 32.1609 34.2833V30.043H37.6428C38.0385 30.043 38.3595 29.722 38.3595 29.3263V26.4615L39.3336 25.6251C39.5949 25.4004 39.6599 25.0214 39.4869 24.7228L38.9159 23.7333H39.1606C39.1639 23.733 39.1679 23.733 39.1703 23.7333C39.5663 23.7333 39.887 23.4123 39.887 23.0166C39.887 22.847 39.8283 22.6906 39.7296 22.5683L38.8283 21.0079H41.2824C41.5384 21.0079 41.7751 20.8712 41.9031 20.6495C42.0318 20.4285 42.0318 20.1551 41.9035 19.9331L41.9029 19.9335ZM20.7006 33.5679H12.1335V29.3277C12.1335 28.932 11.8128 28.611 11.4168 28.611H5.93552V26.1332C5.93552 25.9238 5.84418 25.7251 5.6855 25.5888L4.91279 24.9254L5.80748 23.376C5.93548 23.1543 5.93548 22.881 5.80748 22.6593C5.67947 22.4376 5.44279 22.301 5.18678 22.301H4.94243L5.8395 20.7479C5.90251 20.6389 5.93551 20.5155 5.93551 20.3895V20.2925C5.93551 19.8969 5.61483 19.5758 5.2188 19.5758H2.82063L5.83913 14.3469C5.9038 14.2359 5.93647 14.1096 5.93513 13.9809L5.90947 11.5097C6.53884 5.76307 11.3697 1.43386 17.1639 1.43386C17.9356 1.43386 18.6893 1.5122 19.4177 1.65987C15.5547 3.85502 12.9413 8.00519 12.9413 12.7573C12.9413 16.6085 14.656 20.2144 17.6158 22.6241C19.5139 24.3565 20.6233 26.7943 20.7097 29.3514C20.7067 29.4575 20.701 29.5631 20.701 29.6698L20.7006 33.5679ZM21.4303 2.27185C25.5642 3.96027 28.4864 8.02322 28.4864 12.7574C28.4864 16.1759 26.964 19.3767 24.2785 21.566C23.0044 22.7287 22.0357 24.1671 21.4293 25.7486C20.8196 24.1638 19.8425 22.7174 18.5508 21.5394C15.896 19.3769 14.374 16.176 14.374 12.7572C14.3743 8.02288 17.2961 3.96053 21.4304 2.27168L21.4303 2.27185ZM37.6429 19.5759C37.2472 19.5759 36.9262 19.8969 36.9262 20.2926V20.3896C36.9262 20.5156 36.9592 20.6389 37.0222 20.7479L37.9186 22.301H37.6739C37.4179 22.301 37.1812 22.4377 37.0532 22.6594C36.9245 22.8811 36.9245 23.1544 37.0532 23.3761L37.9482 24.9258L37.1755 25.5892C37.0172 25.7249 36.9261 25.9239 36.9261 26.1329V28.6107L31.4442 28.6113C31.0485 28.6113 30.7275 28.9324 30.7275 29.3281V33.5683L22.1595 33.5687V29.6711C22.1595 29.5664 22.1542 29.4624 22.1509 29.3584C22.2359 26.7993 23.3446 24.3602 25.2147 22.6517C28.2048 20.2155 29.92 16.6097 29.92 12.7584C29.92 8.00679 27.3065 3.85679 23.443 1.66104C24.1717 1.51336 24.9257 1.43503 25.6971 1.43503C31.4921 1.43503 36.3226 5.7633 36.9506 11.5109L36.9256 13.9827C36.9243 14.1114 36.9573 14.2374 37.0216 14.3484L40.0401 19.5771L37.6433 19.5768L37.6429 19.5759Z" fill="black"/>
</svg>
