<svg width="64" height="29" viewBox="0 0 64 29" fill="none" xmlns="http://www.w3.org/2000/svg">
<path d="M7.90296 28.9826L7.19434 28.5991L17.5105 9.4082L32.3945 28.428L31.7778 28.9171L17.6286 10.8626L7.90296 28.9826Z" fill="black"/>
<path d="M1.90039 28.4874L17.5203 9.57031L18.1323 10.0829L2.51243 29.0001L1.90039 28.4874Z" fill="black"/>
<path d="M60.3626 28.9167L47.7497 12.6336L44.7047 18.317L43.9961 17.9339L47.6188 11.1797L60.9923 28.4281L60.3626 28.9167Z" fill="black"/>
<path d="M42.8779 16.6902L47.6547 11.3438L48.2466 11.8799L43.4698 17.2263L42.8779 16.6902Z" fill="black"/>
<path d="M50.3094 28.8249L44.0229 18.5156L33.8244 1.7439L25.8973 20.4994L25.1621 20.1822L33.6935 0L44.6921 18.0946L50.9919 28.4039L50.3094 28.8249Z" fill="black"/>
<path d="M22.1709 16.6936L33.533 0.306641L34.1858 0.765773L22.8237 17.1527L22.1709 16.6936Z" fill="black"/>
<path d="M36.829 11.404L32.2354 9.72509L32.5109 8.97185L36.6194 10.4788L38.5484 8.52246L39.1129 9.09085L36.829 11.404Z" fill="black"/>
<path d="M18.0219 28.9956L15.1343 25.9822L14.6358 24.1318L13.5463 23.656L12.877 21.9642H11.4199V21.1709H13.4148L14.1632 23.048L15.3049 23.55L15.8432 25.5723L18.5861 28.4406L18.0219 28.9956Z" fill="black"/>
<path d="M21.2905 26.1817L20.6602 25.6926L23.154 22.4151L24.5584 22.2431L26.6848 21.2119L27.0258 21.926L24.7814 23.0226L23.5872 23.1683L21.2905 26.1817Z" fill="black"/>
<path d="M33.6008 14.7354H30.5031L28.0225 13.5193L28.3772 12.8057L30.6871 13.9291H33.6007L33.6008 14.7354Z" fill="black"/>
<path d="M42.9339 16.3483L40.3054 15.6582L39.3409 14.7824C38.1434 14.5662 36.8286 14.3385 36.6502 14.3251L36.2588 14.3255V13.5234H36.657C36.858 13.5234 38.5829 13.8305 39.5936 14.0135L39.7053 14.0337L40.6946 14.9317L43.1358 15.5725L42.9339 16.3483Z" fill="black"/>
<path d="M0.5 28.1963H63.5V28.9979H0.5V28.1963Z" fill="black"/>
</svg>
