<svg width="50" height="35" viewBox="0 0 50 35" fill="none" xmlns="http://www.w3.org/2000/svg">
<path d="M13.0601 11.9479H49.4699C49.7631 11.9479 50.0001 11.7649 50.0001 11.5393C50.0001 11.3134 49.7631 11.1307 49.4699 11.1307H13.7738C14.5843 10.1328 15.1001 9.19321 15.444 8.10986C15.5353 7.82109 15.603 7.28309 15.6356 6.73545H49.4688C49.762 6.73545 49.999 6.55242 49.999 6.32687C49.999 6.10095 49.762 5.91829 49.4688 5.91829L15.6535 5.91755C15.6502 5.70938 15.6402 5.51674 15.6203 5.36625C15.4857 4.44482 15.0405 3.05709 14.5125 1.94932C14.1294 1.14253 13.4254 0.354923 12.8975 0.137874C12.4319 -0.0592015 12.4523 -0.0592016 11.9768 0.230682C10.331 1.24531 9.19176 3.57435 9.22281 5.8942V5.91749H1.43065C1.13743 5.91749 0.90042 6.10052 0.90042 6.32607C0.90042 6.55125 1.13743 6.73465 1.43065 6.73465H9.27165C9.34597 7.47526 9.51458 8.55092 9.87435 10.6348L9.96272 11.1299L1.43063 11.1303C1.13741 11.1303 0.9004 11.3133 0.9004 11.5388C0.9004 11.764 1.13741 11.9474 1.43063 11.9474H9.43577L8.653 12.7058C7.90758 13.4309 7.0072 14.3009 6.6441 14.6422C6.28211 14.9735 5.79552 15.5115 5.55744 15.8228C5.35001 16.092 5.15922 16.3287 5.09044 16.4085L1.43062 16.4089C1.1374 16.4089 0.900391 16.5919 0.900391 16.8175C0.900391 17.0427 1.1374 17.2261 1.43062 17.2261H4.6323C4.37162 17.753 4.06953 18.4056 3.95269 18.7214C3.6787 19.4864 3.65689 20.5546 3.82364 21.621H1.43062C1.1374 21.621 0.900391 21.8044 0.900391 22.0296C0.900391 22.2547 1.1374 22.4381 1.43062 22.4381H3.98891C4.23332 23.4161 4.62933 24.3243 5.13294 24.9114C6.11576 26.0643 7.83918 26.897 9.57699 27.0982L1.43062 27.0986C1.1374 27.0986 0.900391 27.282 0.900391 27.5071C0.900391 27.7323 1.1374 27.9157 1.43062 27.9157H13.0763C13.0826 27.9534 13.0885 27.9904 13.0944 28.0285C13.4878 30.3783 13.0733 32.3868 11.9866 33.4528C11.7381 33.6909 10.7853 34.1154 10.1955 34.25C9.26411 34.4574 7.65899 34.0326 6.96572 33.3903C6.59301 33.0594 6.73684 32.8416 7.30664 32.8723C9.22827 32.795 9.68083 30.7743 8.3774 29.6144C7.93222 29.3349 7.8616 29.2191 7.25117 29.2498C5.92598 29.3223 5.45676 29.9897 5.37431 31.3148C5.36359 31.9774 5.31035 32.2403 5.51741 32.7169C5.97258 33.7422 6.54273 34.2392 7.92964 34.8186C8.44693 35.0264 9.98995 35.067 10.6522 34.8811C12.4747 34.363 13.551 33.256 13.9134 31.5163C14.0617 30.806 14.0332 29.1728 13.8857 27.9149H49.47C49.7633 27.9149 50.0003 27.7318 50.0003 27.5063C50.0003 27.2804 49.7633 27.0977 49.47 27.0977H13.7598C13.7424 27.0086 13.7239 26.9243 13.7047 26.847C13.6529 26.6396 13.7254 26.5778 14.2534 26.319C15.1741 25.8639 16.51 24.4765 17.0273 23.4305C17.2595 22.9601 17.3575 22.7357 17.4 22.4377H49.4688C49.7621 22.4377 49.9991 22.2543 49.9991 22.0291C49.9991 21.8032 49.7621 21.6206 49.4688 21.6206H17.4313C17.429 20.847 17.3836 20.6185 17.0892 19.9005C16.5309 18.5153 15.7348 17.6679 14.562 17.2256H49.4686C49.7618 17.2256 49.9989 17.0426 49.9989 16.8171C49.9989 16.5911 49.7618 16.4085 49.4686 16.4085L11.9125 16.4081C11.8674 16.1326 11.7672 15.5436 11.6652 14.9421L11.4374 13.5961L12.6076 12.4155C12.7674 12.2565 12.9149 12.1012 13.0595 11.9477L13.0601 11.9479ZM11.4798 3.91721C11.5105 3.88578 11.6658 3.69942 11.8107 3.50271C12.484 2.60199 13.0531 2.31429 13.4154 2.44672C13.5707 2.47593 14.068 3.52344 14.1816 4.22674C14.2607 4.70742 14.2733 5.33414 14.2307 5.91722H10.5839C10.8143 5.25758 11.3559 4.0751 11.4798 3.91722L11.4798 3.91721ZM14.1257 6.73514C14.0939 6.89525 14.0588 7.04536 14.0167 7.16775C13.8403 7.68578 13.6229 7.92353 11.5212 9.95237L10.9111 10.5525L10.6834 9.17626C10.4486 7.73861 10.3694 7.16669 10.4009 6.73515L14.1257 6.73514ZM5.89134 22.4387H8.69441C9.03052 23.1121 9.36293 23.4437 10.0097 23.7529C11.3252 24.3992 11.2998 24.2431 10.3092 23.0903C10.0784 22.8669 9.90171 22.6536 9.76637 22.4387H12.0655C12.1997 23.159 12.3439 23.9251 12.4837 24.6535C12.6597 25.5336 12.7218 26.1233 12.6704 26.1754C12.5044 26.3414 11.3045 26.4661 10.2693 26.4343C8.94406 26.3928 8.24 26.1237 7.46353 25.3575C6.62124 24.516 6.10322 23.535 5.89137 22.4387L5.89134 22.4387ZM9.45091 21.1028C9.49232 20.7715 9.60621 20.3471 9.7201 20.1603C9.94786 19.7776 10.7547 19.1982 11.1895 19.0943C11.4483 19.0418 11.4586 19.0529 11.5832 19.7883C11.6568 20.2136 11.7751 20.8691 11.9134 21.6219H9.45643C9.43535 21.4559 9.43314 21.2844 9.45088 21.1028L9.45091 21.1028ZM11.4527 27.0988C11.7252 27.0755 11.9726 27.0459 12.1419 27.0141C12.525 26.9416 12.8666 26.8902 12.877 26.9106C12.8844 26.918 12.9025 26.9879 12.9262 27.0988L11.4527 27.0988ZM16.0029 23.1003C15.9308 23.5662 15.4959 24.3323 15.0094 24.8507C14.7609 25.1088 13.7256 25.8646 13.6221 25.8646C13.5599 25.8646 13.4254 25.202 12.9805 22.6041C12.9698 22.5457 12.9613 22.4954 12.9513 22.4388H16.0333C16.0322 22.708 16.0211 22.9587 16.003 23.1003L16.0029 23.1003ZM15.9999 21.6213H12.8108C12.3656 19.0419 12.3449 18.8669 12.4004 18.7835C12.4832 18.6393 13.7671 18.8042 14.2333 19.0319C15.2682 19.5304 15.8738 20.4196 15.9999 21.6213H15.9999ZM10.5375 17.4069C9.79286 17.8313 8.95422 18.6596 8.64365 19.2708C8.41589 19.7363 8.36412 19.9748 8.35377 20.7513C8.34304 21.1595 8.34526 21.4076 8.38298 21.6221H5.7925C5.76329 21.0386 5.80618 20.4292 5.94077 19.7885C6.14636 18.8145 6.356 18.3775 7.52003 17.2265H10.8485C10.7605 17.2775 10.6544 17.3389 10.5376 17.4069L10.5375 17.4069ZM8.37303 16.4093C8.53573 16.2577 8.7047 16.0991 8.8918 15.9264C9.59507 15.2745 10.2277 14.684 10.2891 14.6111C10.4448 14.4351 10.5376 14.4458 10.5997 14.6529C10.6637 14.891 10.836 15.7707 10.9495 16.4093L8.37303 16.4093Z" fill="black"/>
</svg>
