<svg width="36" height="35" viewBox="0 0 36 35" fill="none" xmlns="http://www.w3.org/2000/svg">
<path d="M28.4991 13.528C26.596 12.3392 24.5258 11.4418 22.3573 10.8652C19.7683 10.188 17.0727 10.0187 14.4192 10.3664L6.68072 2.97792C6.66827 2.96497 6.65532 2.95277 6.64137 2.94156L5.91285 2.35926L6.19628 2.07608L6.21297 2.09276C6.37685 2.2539 6.63986 2.25291 6.80225 2.09052C6.96489 1.92813 6.96588 1.66488 6.80474 1.50125L6.17935 0.875854C6.01522 0.717202 5.7542 0.719695 5.59281 0.881085C5.43142 1.04247 5.42918 1.30349 5.58783 1.46762L5.60452 1.48431L5.25509 1.83374L3.07528 0.0915787C2.9089 -0.041417 2.66906 -0.0282189 2.51838 0.122462L1.11465 1.52619C0.963968 1.67687 0.95077 1.91672 1.08377 2.08309L2.82618 4.26309L2.48049 4.60879L2.4638 4.59185H2.46355C2.30017 4.42847 2.03516 4.42847 1.87179 4.59185C1.70841 4.75523 1.7084 5.02024 1.87179 5.18361L2.18411 5.49593H2.18436V5.49618L2.49667 5.8085H2.49692C2.57513 5.8882 2.68197 5.93303 2.79355 5.93353C2.90513 5.93402 3.01223 5.88994 3.09093 5.81099C3.16988 5.73203 3.21397 5.62494 3.21347 5.51336C3.21297 5.40178 3.16814 5.29493 3.08844 5.21673L3.07176 5.20004L3.35145 4.92035L3.9335 5.64861H3.93375C3.95642 5.67675 3.98257 5.70191 4.01171 5.72333L11.3625 13.4229C11.0148 16.0764 11.1842 18.772 11.8614 21.361C12.438 23.5295 13.3353 25.5997 14.5241 27.503C16.5158 30.7196 18.671 32.5442 18.9016 32.7348C20.3663 34.1883 22.3468 35.0027 24.4103 35C26.4737 34.9973 28.4523 34.1776 29.913 32.7201L33.716 28.917V28.9172C35.1757 27.4574 35.9968 25.4787 35.9996 23.4145C36.0023 21.3502 35.1864 19.3692 33.7306 17.9058C33.5401 17.6749 31.7155 15.5198 28.4988 13.5281L28.4991 13.528ZM21.9994 20.4127L18.7636 17.1769C19.3656 16.7605 20.1285 16.6516 20.8226 16.883C21.517 17.1146 22.062 17.6593 22.2933 18.3537C22.5249 19.0481 22.4161 19.8107 21.9994 20.4127L21.9994 20.4127ZM17.0583 18.1776L4.84968 5.39002L5.32164 4.91805L17.5737 17.1701C17.3423 17.4717 17.1677 17.8131 17.0584 18.1775L17.0583 18.1776ZM18.1724 17.7689L21.4082 21.0047C20.8062 21.4209 20.0436 21.5297 19.3492 21.2981C18.6551 21.0667 18.1104 20.522 17.8788 19.8277C17.6474 19.1335 17.756 18.3706 18.1724 17.7689L18.1724 17.7689ZM18.1654 16.5784L5.91342 4.32637L6.38589 3.8539L19.1735 16.0626C18.8088 16.1719 18.4674 16.3465 18.1653 16.5781L18.1654 16.5784ZM1.97117 1.85314L2.84512 0.979192L5.75338 3.30367L4.29539 4.76115L1.97117 1.85314ZM33.1247 28.3254L29.3215 32.1283C28.0152 33.4317 26.2451 34.1637 24.3999 34.1637C22.5548 34.1637 20.7848 33.4317 19.4784 32.1283C19.4685 32.1184 19.4575 32.1087 19.4468 32.0997C19.4246 32.0815 17.2075 30.2564 15.2192 27.0368C14.079 25.2065 13.2185 23.2157 12.6659 21.1311C12.0776 18.8751 11.8913 16.533 12.1154 14.2119L16.9288 19.2534C16.9686 20.0237 17.2886 20.753 17.8288 21.3039C18.3688 21.8546 19.0916 22.1891 19.8609 22.2441C20.6305 22.2991 21.3934 22.0712 22.0066 21.6027L27.6669 27.2631L26.0134 28.9169C25.9332 28.9951 25.8876 29.1019 25.8869 29.214C25.8861 29.3259 25.9302 29.4334 26.0094 29.5127C26.0884 29.5919 26.196 29.6359 26.308 29.6352C26.4199 29.6344 26.527 29.5889 26.6052 29.5087L30.5042 25.6097H30.5039C30.5841 25.5314 30.63 25.4246 30.6307 25.3125C30.6314 25.2007 30.5874 25.0931 30.5082 25.0139C30.429 24.9347 30.3214 24.8906 30.2093 24.8914C30.0975 24.8921 29.9904 24.9377 29.9124 25.0179L28.2589 26.6717L22.5982 21.0113C23.0672 20.3986 23.2961 19.6355 23.2413 18.8657C23.1865 18.0961 22.8523 17.3731 22.3011 16.8328C21.7502 16.2926 21.0205 15.9728 20.2499 15.9335L15.2079 11.1197C17.5286 10.8955 19.8706 11.0818 22.1264 11.6701C24.2113 12.2225 26.2018 13.0833 28.0324 14.2235C31.2523 16.2117 33.0776 18.4286 33.0953 18.4508C33.1042 18.4617 33.114 18.4724 33.1242 18.4827C34.4293 19.788 35.1625 21.5583 35.1625 23.4041C35.1625 25.2501 34.4293 27.0205 33.1242 28.3256L33.1247 28.3254Z" fill="black"/>
<path d="M28.605 18.7286C28.269 18.3929 27.8135 18.2041 27.3386 18.2041C26.8639 18.2041 26.4083 18.3929 26.0724 18.7286C25.7366 19.0644 25.5479 19.5199 25.5479 19.9948C25.5479 20.4698 25.7366 20.9253 26.0724 21.261C26.4084 21.597 26.8639 21.7855 27.3386 21.7855C27.8135 21.7855 28.2691 21.597 28.605 21.261C28.9437 20.9268 29.1343 20.4707 29.1343 19.9948C29.1343 19.5189 28.9437 19.0629 28.605 18.7286V18.7286ZM28.0133 20.6693V20.6696C27.8344 20.8484 27.5919 20.9488 27.3388 20.9488C27.0858 20.9488 26.8432 20.8484 26.6644 20.6696C26.4853 20.4905 26.3849 20.2479 26.3849 19.9949C26.3849 19.7418 26.4853 19.4993 26.6644 19.3204C26.8432 19.1416 27.0858 19.041 27.3388 19.041C27.5919 19.041 27.8344 19.1416 28.0133 19.3204C28.1936 19.4985 28.2952 19.7413 28.2952 19.9949C28.2952 20.2484 28.1936 20.4913 28.0133 20.6696V20.6693Z" fill="black"/>
<path d="M20.989 24.5527C20.4321 24.5527 19.9071 24.8118 19.5684 25.2533C19.2294 25.6949 19.1151 26.2693 19.2593 26.8069C19.4033 27.3447 19.7893 27.7848 20.3036 27.9977C20.8182 28.2109 21.4022 28.1726 21.8844 27.8941C22.3664 27.6159 22.6916 27.129 22.7644 26.5771C22.8371 26.0252 22.6488 25.4707 22.2553 25.0773C21.9201 24.7403 21.464 24.5515 20.9891 24.5528L20.989 24.5527ZM21.6635 27.0179C21.4844 27.197 21.2418 27.2974 20.9888 27.2974C20.736 27.2974 20.4932 27.197 20.3143 27.0179C20.1355 26.8391 20.0349 26.5965 20.0349 26.3435C20.0349 26.0904 20.1355 25.8479 20.3143 25.669C20.4932 25.49 20.736 25.3896 20.9888 25.3896C21.2418 25.3896 21.4844 25.4902 21.6635 25.669C21.8423 25.8479 21.9427 26.0904 21.9427 26.3435C21.9427 26.5965 21.8423 26.8391 21.6635 27.0179Z" fill="black"/>
</svg>
