<svg width="26" height="35" viewBox="0 0 26 35" fill="none" xmlns="http://www.w3.org/2000/svg">
<path d="M16.7249 35H9.72492C7.67492 34.999 5.68612 34.3015 4.08432 33.0224L0.584325 30.205C0.459585 30.1057 0.380938 29.9599 0.366618 29.8013C0.352296 29.6424 0.403598 29.4849 0.508285 29.3651L9.25828 19.4484C9.36766 19.324 9.52443 19.2518 9.69006 19.25H16.6901C16.8705 19.2505 17.0408 19.3344 17.151 19.4776L24.7343 29.3943C24.8708 29.5719 24.8934 29.8122 24.7927 30.0125C24.0481 31.5146 22.8976 32.7778 21.4719 33.6594C20.0458 34.5412 18.4015 35.0054 16.725 35L16.7249 35ZM1.78026 29.68L4.82532 32.1125H4.82506C6.21726 33.2346 7.94873 33.8516 9.7368 33.8625H16.7368C18.136 33.8674 19.5107 33.4966 20.7175 32.7886C21.9243 32.0805 22.9189 31.0612 23.5969 29.8375L16.4043 20.4168H9.95273L1.78026 29.68Z" fill="black"/>
<path d="M8.32474 7.77001C8.05521 7.77001 7.79167 7.69084 7.56641 7.5424C7.24219 7.32105 7.02943 6.97001 6.98307 6.57987L6.33568 2.22233C6.25443 1.66374 6.42006 1.09733 6.78959 0.670802C7.15912 0.243982 7.69612 -0.000798045 8.26065 1.95483e-06H8.42394C9.03592 0.00130402 9.61194 0.288282 9.98147 0.775802L12.8573 4.61407C13.1325 4.97943 13.2093 5.45753 13.0622 5.8906C12.9151 6.32367 12.5633 6.6562 12.1223 6.77833L8.69241 7.7174C8.57288 7.75204 8.44919 7.76974 8.32471 7.77L8.32474 7.77001ZM8.26068 1.16661C8.14115 1.16661 8.02318 1.19447 7.91641 1.24838C7.61459 1.39838 7.44297 1.7252 7.49063 2.05905L8.11485 6.41658C8.12474 6.47752 8.15834 6.53195 8.20807 6.56814C8.26094 6.59939 8.32318 6.60981 8.38307 6.59731L11.813 5.65224L11.8133 5.6525C11.881 5.63115 11.9349 5.57932 11.9591 5.51239C11.9831 5.44469 11.9698 5.36943 11.9239 5.31395L9.04814 1.47569C8.89944 1.28116 8.66872 1.1671 8.42392 1.16658L8.26068 1.16661Z" fill="black"/>
<path d="M16.6904 20.4171H9.69036C9.39166 20.4189 9.13984 20.1947 9.10702 19.8978L8.61119 15.552L5.11119 17.0861V17.0864C4.40599 17.3942 3.60286 17.3851 2.90492 17.0619C2.20672 16.7384 1.68072 16.1314 1.45959 15.3947L0.356991 11.8363C0.309074 11.6858 0.328085 11.5223 0.409595 11.3871C0.484335 11.2509 0.610115 11.1501 0.759595 11.1072L24.0929 4.69051C24.3604 4.61577 24.6434 4.74025 24.7695 4.9879L25.9361 7.32123C26.009 7.46446 26.0197 7.63113 25.9656 7.78243C25.9116 7.93373 25.7973 8.05587 25.6502 8.12045L17.8569 11.5387L17.2735 19.8747C17.2522 20.1806 16.997 20.4179 16.6902 20.4171L16.6904 20.4171ZM10.2096 19.2504H16.1419L16.6903 11.0838C16.7052 10.8661 16.8401 10.6747 17.0403 10.5879L24.6237 7.26866L23.9471 5.91527L1.6698 12.0697L2.56826 15.0621C2.69534 15.4772 2.993 15.8189 3.387 16.0015C3.78101 16.184 4.23413 16.1903 4.63306 16.0187L8.87393 14.1695V14.1697C9.04372 14.0955 9.23852 14.1062 9.39893 14.1989C9.55778 14.2913 9.66378 14.4536 9.68487 14.6364L10.2096 19.2504Z" fill="black"/>
<path d="M16.6902 20.417H9.69022C9.39152 20.4188 9.1397 20.1946 9.10689 19.8977L8.83866 17.5644C8.81991 17.399 8.87304 17.2334 8.98449 17.1094C9.09465 16.9873 9.25142 16.9173 9.41601 16.917H16.848C17.0097 16.9175 17.1639 16.9852 17.2738 17.1037C17.3847 17.2214 17.4418 17.3798 17.4313 17.5412L17.2738 19.8745C17.2524 20.1805 16.9972 20.4178 16.6905 20.417H16.6902ZM10.2095 19.2503H16.1418L16.2235 18.0837H10.0811L10.2095 19.2503Z" fill="black"/>
</svg>
