<svg width="36" height="35" viewBox="0 0 36 35" fill="none" xmlns="http://www.w3.org/2000/svg">
<path d="M6.59899 7.71745C6.34867 7.96009 5.94753 7.95811 5.70235 7.7104C5.45656 7.46324 5.45656 7.06627 5.70348 6.82113C6.55368 5.97497 8.3839 5.27725 9.93514 6.82113C10.1835 7.06828 10.1835 7.46779 9.93514 7.71466C9.81126 7.83795 9.64882 7.89974 9.4861 7.89974C9.32366 7.89974 9.16093 7.83767 9.03705 7.71466C7.89258 6.5762 6.80543 7.51829 6.59903 7.71748L6.59899 7.71745ZM16.6003 7.71745C16.8067 7.51826 17.8938 6.57538 19.0389 7.71491C19.1628 7.8382 19.3252 7.9 19.4879 7.9C19.6504 7.9 19.8131 7.83792 19.937 7.71491C20.1853 7.46775 20.1853 7.06825 19.937 6.82138C18.3849 5.2775 16.5555 5.97523 15.7053 6.82138C15.4584 7.06712 15.4584 7.46409 15.7042 7.71065C15.9483 7.95809 16.3502 7.96006 16.6003 7.71742L16.6003 7.71745ZM19.023 16.0778C19.3082 15.8755 19.3748 15.4806 19.1704 15.1962C18.966 14.9118 18.5703 14.846 18.2845 15.0494C12.9351 18.8521 8.41384 15.2328 8.22442 15.0774C7.95454 14.8536 7.5551 14.8915 7.3309 15.1589C7.10609 15.4275 7.14295 15.8262 7.41226 16.0493C7.44855 16.079 9.85652 18.0275 13.2825 18.0275C14.9982 18.0275 16.9684 17.5396 19.0234 16.0779L19.023 16.0778ZM36 9.48111V17.7722C36 27.2716 30.4799 35 23.6938 35C19.1903 35 15.1069 31.6163 12.9428 26.1448C12.9014 26.1454 12.8603 26.1494 12.8189 26.1494C6.03451 26.1494 0.515625 18.4231 0.515625 8.92731V0.63264C0.515625 0.429781 0.613432 0.238774 0.779269 0.119987C0.945113 0.000644942 1.15915 -0.0309547 1.35078 0.0322448C1.40039 0.0486088 6.34185 1.65904 12.8188 1.65904C19.2957 1.65904 24.2367 0.0485684 24.2868 0.0322448C24.4778 -0.0315188 24.6924 8.08416e-05 24.8583 0.119987C25.0241 0.238766 25.1219 0.428928 25.1219 0.63264V8.92731C25.1219 9.44927 25.1024 9.96558 25.0698 10.4757C30.8643 10.2774 35.1197 8.89517 35.1639 8.8805C35.3581 8.81533 35.5696 8.84834 35.7355 8.96825C35.9013 9.08646 35.9991 9.27662 35.9991 9.48033L36 9.48111ZM12.8202 24.8859C18.9041 24.8859 23.8534 17.7275 23.8534 8.92785V1.48042C22.1465 1.95187 18.0006 2.92332 12.8202 2.92332C7.63968 2.92332 3.49308 1.95221 1.78689 1.48042V8.92713C1.78689 17.7267 6.7355 24.8859 12.8202 24.8859ZM34.73 10.3276C33.1654 10.7587 29.5432 11.6069 24.9551 11.746C24.0686 19.2512 19.7029 25.132 14.2629 26.0269C16.2601 30.8004 19.8187 33.7351 23.6938 33.7351C29.7792 33.7351 34.73 26.574 34.73 17.7712V10.3276ZM26.58 15.8254C27.2493 16.4915 27.9694 16.7407 28.6412 16.7407C29.5277 16.7407 30.3277 16.3065 30.8116 15.8254C31.0585 15.5797 31.0585 15.1827 30.8127 14.9361C30.5675 14.6884 30.1655 14.6864 29.9161 14.9291C29.7103 15.1288 28.6231 16.0723 27.4775 14.9316C27.2292 14.6845 26.8277 14.6845 26.5797 14.9316C26.3317 15.1788 26.3316 15.5783 26.58 15.8254L26.58 15.8254ZM18.3248 25.7401C18.0396 25.9424 17.973 26.3374 18.1774 26.6218C18.3013 26.7945 18.4961 26.8868 18.6942 26.8868C18.8218 26.8868 18.9508 26.8481 19.0625 26.7686C24.4119 22.9653 28.9339 26.5846 29.1225 26.7406C29.3924 26.9644 29.7919 26.9265 30.0161 26.6591C30.2409 26.3905 30.204 25.9918 29.9347 25.7687C29.8817 25.7244 24.4852 21.3591 18.3245 25.7402L18.3248 25.7401Z" fill="black"/>
</svg>
